<svg width="63" height="34" viewBox="0 0 63 34" fill="none" xmlns="http://www.w3.org/2000/svg">
<path d="M35.923 1.79067L32.0735 1.72827L30.6145 2.91381L29.1808 3.06166L26.6738 5.32558L24.7509 5.3622L22.5648 7.42808L17.2059 1.83543L15.2709 1.90461L14.2266 3.33973L14.3552 5.19536L24.6151 17.4468L23.5671 18.4357L21.9146 18.2878L19.8895 18.357L18.5627 20.0105L18.719 21.5026L20.6659 24.0528L23.1669 24.5058L24.8254 24.1803L26.1906 25.3292L27.64 25.595L30.498 27.8372L31.9558 27.8101L33.2405 29.0526L35.1754 28.9305L38.6739 32.3556L48.8785 20.6101L46.934 17.8945L46.8487 16.2328L43.5605 11.861L43.8273 10.2047L35.923 1.79067Z" fill="white"/>
<path d="M14.2195 1.91575L13.1787 3.1123L14.2389 4.28692L15.2797 3.09037L14.2195 1.91575Z" fill="black"/>
<path d="M15.2585 0.719215L14.2178 1.91577L15.278 3.09039L16.3187 1.89383L15.2585 0.719215Z" fill="black"/>
<path d="M14.2389 4.28651L13.1982 5.48291L26.9772 20.7491L28.0178 19.5527L14.2389 4.28651Z" fill="black"/>
<path d="M17.359 0.697359L16.3184 1.8938L25.8579 12.4634L26.8985 11.267L17.359 0.697359Z" fill="black"/>
<path d="M23.7009 5.37276L22.6602 6.56934L23.7203 7.74398L24.7611 6.5474L23.7009 5.37276Z" fill="black"/>
<path d="M24.7419 4.17647L23.7012 5.37305L24.7613 6.54769L25.8021 5.35111L24.7419 4.17647Z" fill="black"/>
<path d="M26.8404 4.15437L25.7998 5.35083L30.0392 10.048L31.0798 8.85154L26.8404 4.15437Z" fill="black"/>
<path d="M27.8825 2.95796L26.8418 4.15454L27.902 5.32918L28.9427 4.1326L27.8825 2.95796Z" fill="black"/>
<path d="M28.9216 1.7624L27.8809 2.95898L28.941 4.13362L29.9818 2.93704L28.9216 1.7624Z" fill="black"/>
<path d="M31.0221 1.74104L29.9814 2.9375L34.2209 7.63467L35.2615 6.43821L31.0221 1.74104Z" fill="black"/>
<path d="M32.0612 0.543166L31.0205 1.73975L32.0807 2.91439L33.1214 1.71781L32.0612 0.543166Z" fill="black"/>
<path d="M34.1638 0.521924L33.123 1.71851L34.1832 2.89315L35.224 1.69657L34.1638 0.521924Z" fill="black"/>
<path d="M36.2642 0.500092L35.2236 1.69653L43.7031 11.0916L44.7438 9.8952L36.2642 0.500092Z" fill="black"/>
<path d="M43.7027 11.0921L42.6621 12.2886L46.9015 16.9857L47.9422 15.7893L43.7027 11.0921Z" fill="black"/>
<path d="M46.9029 16.9844L45.8623 18.1809L49.0425 21.7045L50.0831 20.508L46.9029 16.9844Z" fill="black"/>
<path d="M21.697 17.2485L20.6562 18.4451L21.7164 19.6197L22.7572 18.4231L21.697 17.2485Z" fill="black"/>
<path d="M19.5949 17.2699L17.5137 19.6628L18.5737 20.8374L20.655 18.4444L19.5949 17.2699Z" fill="black"/>
<path d="M18.5758 20.838L17.5352 22.0344L20.7154 25.558L21.756 24.3616L18.5758 20.838Z" fill="black"/>
<path d="M22.7956 23.163L21.7549 24.3596L22.815 25.5343L23.8558 24.3377L22.7956 23.163Z" fill="black"/>
<path d="M24.8941 23.1427L23.8535 24.3391L25.9736 26.6882L27.0143 25.4917L24.8941 23.1427Z" fill="black"/>
<path d="M28.0553 24.295L27.0146 25.4915L30.1949 29.015L31.2355 27.8186L28.0553 24.295Z" fill="black"/>
<path d="M32.277 26.6217L31.2363 27.8181L33.3565 30.1672L34.3971 28.9707L32.277 26.6217Z" fill="black"/>
<path d="M35.4371 27.774L34.3965 28.9705L38.6359 33.6676L39.6765 32.4712L35.4371 27.774Z" fill="black"/>
<path d="M49.0221 19.3349L37.5771 32.4937L38.6372 33.6681L50.0821 20.5094L49.0221 19.3349Z" fill="black"/>
<path d="M23.7976 17.2265L22.7568 18.4231L23.817 19.5977L24.8577 18.4012L23.7976 17.2265Z" fill="black"/>
<path d="M4.10094 32.7462V31.4277H2.93994V28.8071H1.77894V25.5326H0.619141V15.0337H1.78014V11.7497H2.94114V9.12088H4.10214V7.81055H5.27035V9.78418H4.10214V11.7497H3.52164V15.6888H2.94114V24.8774H3.52164V28.8071H4.10214V30.7726H5.27035V32.7462H4.10214H4.10094Z" fill="white"/>
<path d="M57.9912 32.746V30.7723H59.1522V28.8068H59.7327V24.8772H60.3132V15.6886H59.7327V11.7494H59.1522V9.78394H57.9912V7.8103H59.1522V9.12064H60.3132V11.7494H61.4742V15.0334H62.6424V25.5323H61.4742V28.8068H60.3132V31.4275H59.1522V32.746H57.9912Z" fill="white"/>
</svg>
