<svg width="25" height="20" viewBox="0 0 25 20" fill="none" xmlns="http://www.w3.org/2000/svg">
<path d="M21.2429 4.10093C21.1527 3.74807 20.8974 3.48184 20.605 3.39971C20.0856 3.25488 17.5636 2.92245 12.2329 2.92245C6.9021 2.92245 4.38069 3.25501 3.85914 3.40012C3.56952 3.48068 3.31428 3.74686 3.22283 4.10093C3.09394 4.60369 2.75595 6.70842 2.75595 10.0301C2.75595 13.3518 3.09394 15.4566 3.22318 15.9608C3.31305 16.3123 3.56833 16.5784 3.85945 16.6602C4.38069 16.8053 6.9021 17.1378 12.2329 17.1378C17.5636 17.1378 20.0856 16.8054 20.6066 16.6602C20.8962 16.5796 21.1515 16.3134 21.2429 15.9594C21.3718 15.4566 21.7098 13.347 21.7098 10.0301C21.7098 6.71321 21.3718 4.60369 21.2429 4.10093ZM23.5379 3.5126C24.079 5.62337 24.079 10.0301 24.079 10.0301C24.079 10.0301 24.079 14.4369 23.5379 16.5476C23.2364 17.7151 22.3566 18.6326 21.2414 18.9427C19.2175 19.507 12.2329 19.507 12.2329 19.507C12.2329 19.507 5.25239 19.507 3.22433 18.9427C2.10498 18.6283 1.2252 17.7107 0.927803 16.5476C0.386719 14.4369 0.386719 10.0301 0.386719 10.0301C0.386719 10.0301 0.386719 5.62337 0.927803 3.5126C1.22932 2.34522 2.10911 1.42768 3.22433 1.11752C5.25239 0.553222 12.2329 0.553223 12.2329 0.553223C12.2329 0.553223 19.2175 0.553222 21.2414 1.11752C22.3607 1.43199 23.2406 2.34952 23.5379 3.5126ZM9.86366 14.1763V5.88398L16.9713 10.0301L9.86366 14.1763Z" fill="black"/>
</svg>
