<svg width="20" height="23" viewBox="0 0 20 23" fill="none" xmlns="http://www.w3.org/2000/svg">
<path d="M8.32872 10.0897C8.96804 10.0897 9.48588 10.5692 9.47416 11.1553C9.47416 11.7413 8.9691 12.2208 8.32872 12.2208C7.70006 12.2208 7.18222 11.7413 7.18222 11.1553C7.18222 10.5692 7.68834 10.0897 8.32872 10.0897ZM12.4289 10.0897C13.0692 10.0897 13.5754 10.5692 13.5754 11.1553C13.5754 11.7413 13.0692 12.2208 12.4289 12.2208C11.8002 12.2208 11.2834 11.7413 11.2834 11.1553C11.2834 10.5692 11.7885 10.0897 12.4289 10.0897ZM17.7213 0.5C18.9605 0.5 19.9685 1.5293 19.9685 2.80473V22.876L17.6126 20.7503L16.2861 19.4973L14.8828 18.1653L15.4645 20.2357H3.03626C1.79705 20.2357 0.789062 19.2064 0.789062 17.9309V2.80473C0.789062 1.5293 1.79705 0.5 3.03626 0.5H17.7203H17.7213ZM13.4912 15.1115C15.9131 15.0338 16.8455 13.411 16.8455 13.411C16.8455 9.80843 15.2664 6.88782 15.2664 6.88782C13.6894 5.68058 12.187 5.71362 12.187 5.71362L12.0336 5.89262C13.8972 6.4744 14.7624 7.31403 14.7624 7.31403C13.7449 6.74077 12.6235 6.37567 11.4635 6.23998C10.7277 6.15688 9.98448 6.16403 9.2504 6.2613C9.18434 6.2613 9.12893 6.27302 9.06393 6.28367C8.68035 6.31777 7.74801 6.46268 6.57593 6.98905C6.17103 7.17871 5.92916 7.31403 5.92916 7.31403C5.92916 7.31403 6.83912 6.42965 8.81141 5.84787L8.70166 5.71362C8.70166 5.71362 7.20033 5.68058 5.62229 6.88889C5.62229 6.88889 4.04424 9.80843 4.04424 13.411C4.04424 13.411 4.96486 15.0327 7.3868 15.1115C7.3868 15.1115 7.7917 14.6086 8.12201 14.1835C6.72937 13.7573 6.20406 12.8622 6.20406 12.8622C6.20406 12.8622 6.31275 12.9411 6.50987 13.053C6.52053 13.0636 6.53118 13.0753 6.55356 13.086C6.58659 13.1094 6.61962 13.1201 6.65265 13.1425C6.92649 13.2991 7.20033 13.4216 7.45179 13.5229C7.90145 13.7019 8.43847 13.8809 9.06393 14.0045C10.0009 14.1881 10.9642 14.1917 11.9025 14.0151C12.449 13.9176 12.9822 13.7563 13.4912 13.5346C13.8748 13.3886 14.3021 13.1755 14.7517 12.8739C14.7517 12.8739 14.204 13.7914 12.7677 14.2059C13.0969 14.631 13.4923 15.1115 13.4923 15.1115H13.4912Z" fill="black"/>
</svg>
