<svg width="21" height="20" viewBox="0 0 21 20" fill="none" xmlns="http://www.w3.org/2000/svg">
<path d="M5.1417 2.60693C5.14131 3.46439 4.6211 4.236 3.82637 4.55791C3.03163 4.87983 2.12108 4.68777 1.52407 4.0723C0.927055 3.45681 0.76281 2.54083 1.10877 1.75627C1.45474 0.971704 2.24183 0.475229 3.0989 0.500954C4.23726 0.535123 5.14222 1.46806 5.1417 2.60693ZM5.20488 6.27134H0.992919V19.4547H5.20488V6.27134ZM11.8598 6.27134H7.66888V19.4547H11.8177V12.5366C11.8177 8.68265 16.8404 8.32464 16.8404 12.5366V19.4547H20.9997V11.1045C20.9997 4.60761 13.5656 4.8498 11.8177 8.04033L11.8598 6.27134Z" fill="black"/>
</svg>
