<svg width="20" height="22" viewBox="0 0 20 22" fill="none" xmlns="http://www.w3.org/2000/svg">
<path d="M13.935 7.07631V14.7154C13.935 18.4955 10.8707 21.5598 7.09053 21.5598C3.31045 21.5598 0.246094 18.4955 0.246094 14.7154C0.246094 10.9352 3.31045 7.87093 7.09053 7.87093C7.63419 7.87093 8.163 7.93431 8.67001 8.05408V11.3845C8.19132 11.1571 7.65577 11.0299 7.09053 11.0299C5.0551 11.0299 3.40506 12.6799 3.40506 14.7154C3.40506 16.7508 5.0551 18.4008 7.09053 18.4008C9.12596 18.4008 10.776 16.7508 10.776 14.7154V0.5H13.935C13.935 3.40775 16.2922 5.76495 19.1999 5.76495V8.92392C17.2078 8.92392 15.3771 8.2324 13.935 7.07631Z" fill="black"/>
</svg>
