<svg width="22" height="22" viewBox="0 0 22 22" fill="none" xmlns="http://www.w3.org/2000/svg">
<path d="M11.1256 7.87093C9.3804 7.87093 7.96663 9.2852 7.96663 11.0299C7.96663 12.775 9.38092 14.1889 11.1256 14.1889C12.8707 14.1889 14.2846 12.7746 14.2846 11.0299C14.2846 9.28478 12.8703 7.87093 11.1256 7.87093ZM11.1256 5.76495C14.0323 5.76495 16.3906 8.12059 16.3906 11.0299C16.3906 13.9367 14.0349 16.2948 11.1256 16.2948C8.21885 16.2948 5.86065 13.9392 5.86065 11.0299C5.86065 8.12315 8.21629 5.76495 11.1256 5.76495ZM17.97 5.50081C17.97 6.22749 17.3795 6.81707 16.6538 6.81707C15.9271 6.81707 15.3376 6.22658 15.3376 5.50081C15.3376 4.77503 15.928 4.18546 16.6538 4.18546C17.3786 4.18455 17.97 4.77503 17.97 5.50081ZM11.1256 2.60598C8.52 2.60598 8.0953 2.61288 6.88341 2.66684C6.05774 2.7056 5.50427 2.81665 4.99002 3.0163C4.53302 3.19354 4.20336 3.40518 3.85212 3.75642C3.49952 4.10902 3.28826 4.43779 3.11174 4.895C2.91163 5.41043 2.80061 5.96303 2.76255 6.78756C2.70805 7.95011 2.70168 8.35641 2.70168 11.0299C2.70168 13.6355 2.70858 14.0602 2.76253 15.272C2.80132 16.0973 2.91251 16.6516 3.11167 17.1646C3.28938 17.6222 3.50145 17.9527 3.851 18.3023C4.20498 18.6558 4.53474 18.8677 4.98761 19.0425C5.50812 19.2437 6.06124 19.3549 6.88325 19.393C8.04581 19.4474 8.45211 19.4538 11.1256 19.4538C13.7312 19.4538 14.1559 19.4469 15.3677 19.393C16.1912 19.3543 16.7459 19.2428 17.2603 19.0438C17.7167 18.8666 18.0482 18.6538 18.398 18.3045C18.752 17.9499 18.9635 17.621 19.1386 17.167C19.3393 16.6484 19.4507 16.0946 19.4887 15.2723C19.5431 14.1097 19.5495 13.7033 19.5495 11.0299C19.5495 8.4243 19.5426 7.99962 19.4887 6.78779C19.4499 5.96403 19.3384 5.4085 19.1392 4.89432C18.9624 4.43858 18.75 4.10791 18.399 3.75642C18.0459 3.40325 17.718 3.19242 17.2604 3.01604C16.7454 2.81609 16.192 2.70492 15.3679 2.66685C14.2054 2.61235 13.7991 2.60598 11.1256 2.60598ZM11.1256 0.5C13.9862 0.5 14.3433 0.51053 15.4666 0.563179C16.5871 0.614955 17.3514 0.792205 18.0227 1.05282C18.7167 1.32046 19.3029 1.68198 19.8882 2.26726C20.4726 2.85256 20.8342 3.44047 21.1027 4.13282C21.3624 4.80322 21.5397 5.56839 21.5923 6.68895C21.6424 7.81214 21.6555 8.16927 21.6555 11.0299C21.6555 13.8906 21.645 14.2476 21.5923 15.3709C21.5405 16.4914 21.3624 17.2557 21.1027 17.927C20.835 18.6211 20.4726 19.2072 19.8882 19.7926C19.3029 20.377 18.7141 20.7385 18.0227 21.007C17.3514 21.2668 16.5871 21.444 15.4666 21.4966C14.3433 21.5466 13.9862 21.5598 11.1256 21.5598C8.26497 21.5598 7.90783 21.5493 6.78465 21.4966C5.66409 21.4448 4.90067 21.2668 4.22852 21.007C3.53529 20.7393 2.94825 20.377 2.36297 19.7926C1.77768 19.2072 1.41704 18.6185 1.14852 17.927C0.887908 17.2557 0.711532 16.4914 0.658883 15.3709C0.608866 14.2476 0.595703 13.8906 0.595703 11.0299C0.595703 8.16927 0.606233 7.81214 0.658883 6.68895C0.710648 5.56751 0.887908 4.8041 1.14852 4.13282C1.41615 3.4396 1.77768 2.85256 2.36297 2.26726C2.94825 1.68198 3.53618 1.32133 4.22852 1.05282C4.8998 0.792205 5.66322 0.615829 6.78465 0.563179C7.90783 0.513162 8.26497 0.5 11.1256 0.5Z" fill="black"/>
</svg>
