<svg width="100" height="25" viewBox="0 0 100 25" fill="none" xmlns="http://www.w3.org/2000/svg">
<path d="M5.28577 9.02136C5.28577 9.02136 11.6121 9.65917 12.0964 1C12.0964 1 12.0349 8.14984 18.4919 8.99701C18.4919 8.99701 12.5268 9.33296 12.2885 16.8504C12.2809 16.8577 12.3321 9.75168 5.2832 9.02136H5.28577Z" fill="#F0FF27" stroke="black" stroke-width="0.880578" stroke-linejoin="round"/>
<g clip-path="url(#clip0_202_7949)">
<path d="M24 16.5618L38.3696 9.38381V8.73879H24V3.63818H47.339V11.2891L32.9983 18.4087V19.0527H47.3979V24.1533H24V16.5618Z" fill="black"/>
<path d="M65.4719 14.2178V13.5144C69.4242 13.5144 72.0515 11.8652 72.0515 8.98121C72.0515 5.18657 69.2743 3.64258 64.2915 3.64258H48.918V24.1513H64.2915C69.6617 24.1513 72.0515 22.2237 72.0515 19.2026C72.0515 16.0636 70.1348 14.2178 65.4719 14.2178ZM61.3698 19.4916H56.7369V16.0636H61.3698C62.8681 16.0636 63.6418 16.7394 63.6418 17.7638C63.6418 19.0889 62.7397 19.4916 61.3698 19.4916V19.4916ZM61.3698 11.6984H56.7369V8.29795H61.3698C62.5716 8.29795 63.6418 8.59546 63.6418 10.0258C63.6418 11.388 62.409 11.6984 61.3698 11.6984V11.6984Z" fill="black"/>
<path d="M73.1387 3.6416H87.2729C95.8548 3.6416 99.7236 7.85917 99.7236 13.896C99.7236 20.2366 95.0736 24.1503 87.2729 24.1503H73.1387V3.6416ZM91.3739 13.896C91.3739 10.2756 88.8439 8.91541 86.3867 8.91541H81.3118V18.8765H86.3867C88.814 18.8765 91.3739 17.5163 91.3739 13.896V13.896Z" fill="black"/>
</g>
<path d="M3.63164 16.8506L4.45003 18.4641C4.70578 18.9763 5.11498 19.3861 5.65205 19.6678L7.26327 20.4874L5.65205 21.3069C5.14055 21.563 4.73136 21.9728 4.45003 22.5107L3.63164 24.1242L2.81324 22.5107C2.55749 21.9984 2.14829 21.5887 1.61122 21.3069L0 20.4874L1.61122 19.6678C2.12272 19.4117 2.53191 19.0019 2.81324 18.4641L3.63164 16.8506Z" fill="#0822F5"/>
<defs>
<clipPath id="clip0_202_7949">
<rect width="75.7244" height="20.5087" fill="white" transform="translate(24 3.6416)"/>
</clipPath>
</defs>
</svg>
