<svg width="8695" height="207" viewBox="0 0 8695 207" fill="none" xmlns="http://www.w3.org/2000/svg">
<path d="M8692.8 2.20166L2.21094 2.20166L2.21094 204.793L8692.8 204.793V2.20166Z" fill="white" stroke="black" stroke-width="0.886716" stroke-miterlimit="10"/>
<path d="M240.174 117.661L310.191 82.6102V79.4799H240.174V54.5693H353.93V91.9572L284.045 126.744V129.874H354.238V154.785H240.174V117.705V117.661Z" fill="black"/>
<path d="M442.33 106.246V102.807C461.598 102.807 474.384 94.7386 474.384 80.6741C474.384 62.1565 460.848 54.6172 436.554 54.6172H361.643V154.788H436.554C462.744 154.788 474.384 145.353 474.384 130.627C474.384 115.902 465.037 106.29 442.33 106.29V106.246ZM422.356 131.994H399.782V115.24H422.356C429.676 115.24 433.423 118.547 433.423 123.529C433.423 130.01 429.014 131.95 422.356 131.95V131.994ZM422.356 93.945H399.782V77.3233H422.356C428.221 77.3233 433.423 78.7782 433.423 85.7443C433.423 92.7105 427.427 93.9009 422.356 93.9009V93.945Z" fill="black"/>
<path d="M479.678 54.5693H548.549C590.391 54.5693 609.218 75.1591 609.218 104.655C609.218 135.606 586.555 154.741 548.549 154.741H479.678V54.5693ZM568.566 104.655C568.566 86.9751 556.22 80.3176 544.272 80.3176H519.536V128.948H544.272C556.088 128.948 568.566 122.291 568.566 104.611V104.655Z" fill="black"/>
<path d="M768.959 117.661L838.976 82.6097V79.4794H768.959V54.5688H882.715V91.9567L812.83 126.743V129.874H883.023V154.784H768.959V117.705V117.661Z" fill="black"/>
<path d="M971.114 106.246V102.807C990.382 102.807 1003.17 94.7386 1003.17 80.6741C1003.17 62.1565 989.632 54.6172 965.338 54.6172H890.427V154.788H965.338C991.528 154.788 1003.17 145.353 1003.17 130.627C1003.17 115.902 993.821 106.29 971.114 106.29V106.246ZM951.141 131.994H928.566V115.24H951.141C958.46 115.24 962.208 118.547 962.208 123.529C962.208 130.01 957.798 131.95 951.141 131.95V131.994ZM951.141 93.945H928.566V77.3233H951.141C957.005 77.3233 962.208 78.7782 962.208 85.7443C962.208 92.7105 956.211 93.9009 951.141 93.9009V93.945Z" fill="black"/>
<path d="M1008.46 54.5693H1077.33C1119.18 54.5693 1138 75.1591 1138 104.655C1138 135.606 1115.34 154.741 1077.33 154.741H1008.46V54.5693ZM1097.35 104.655C1097.35 86.9751 1085.01 80.3176 1073.06 80.3176H1048.32V128.948H1073.06C1084.87 128.948 1097.35 122.291 1097.35 104.611V104.655Z" fill="black"/>
<path d="M1350.26 117.661L1420.28 82.6097V79.4794H1350.26V54.5688H1464.02V91.9567L1394.13 126.743V129.874H1464.33V154.784H1350.26V117.705V117.661Z" fill="black"/>
<path d="M1552.38 106.246V102.807C1571.64 102.807 1584.43 94.7386 1584.43 80.6741C1584.43 62.1565 1570.89 54.6172 1546.6 54.6172H1471.69V154.788H1546.6C1572.79 154.788 1584.43 145.353 1584.43 130.627C1584.43 115.902 1575.08 106.29 1552.38 106.29V106.246ZM1532.4 131.994H1509.83V115.24H1532.4C1539.72 115.24 1543.47 118.547 1543.47 123.529C1543.47 130.01 1539.06 131.95 1532.4 131.95V131.994ZM1532.4 93.945H1509.83V77.3233H1532.4C1538.27 77.3233 1543.47 78.7782 1543.47 85.7443C1543.47 92.7105 1537.47 93.9009 1532.4 93.9009V93.945Z" fill="black"/>
<path d="M1589.72 54.5693H1658.59C1700.43 54.5693 1719.26 75.1591 1719.26 104.655C1719.26 135.606 1696.6 154.741 1658.59 154.741H1589.72V54.5693ZM1678.61 104.655C1678.61 86.9751 1666.26 80.3176 1654.31 80.3176H1629.58V128.948H1654.31C1666.13 128.948 1678.61 122.291 1678.61 104.611V104.655Z" fill="black"/>
<path d="M1883.68 117.661L1953.7 82.6097V79.4794H1883.68V54.5688H1997.44V91.9567L1927.55 126.743V129.874H1997.74V154.784H1883.68V117.705V117.661Z" fill="black"/>
<path d="M2085.79 106.246V102.807C2105.06 102.807 2117.85 94.7386 2117.85 80.6741C2117.85 62.1565 2104.31 54.6172 2080.02 54.6172H2005.11V154.788H2080.02C2106.21 154.788 2117.85 145.353 2117.85 130.627C2117.85 115.902 2108.5 106.29 2085.79 106.29V106.246ZM2065.82 131.994H2043.25V115.24H2065.82C2073.14 115.24 2076.89 118.547 2076.89 123.529C2076.89 130.01 2072.48 131.95 2065.82 131.95V131.994ZM2065.82 93.945H2043.25V77.3233H2065.82C2071.69 77.3233 2076.89 78.7782 2076.89 85.7443C2076.89 92.7105 2070.89 93.9009 2065.82 93.9009V93.945Z" fill="black"/>
<path d="M2123.19 54.5693H2192.06C2233.9 54.5693 2252.73 75.1591 2252.73 104.655C2252.73 135.606 2230.06 154.741 2192.06 154.741H2123.19V54.5693ZM2212.07 104.655C2212.07 86.9751 2199.73 80.3176 2187.78 80.3176H2163.04V128.948H2187.78C2199.6 128.948 2212.07 122.291 2212.07 104.611V104.655Z" fill="black"/>
<path d="M2446.86 117.661L2516.88 82.6102V79.4799H2446.86V54.5693H2560.62V91.9572L2490.73 126.744V129.874H2560.92V154.785H2446.86V117.705V117.661Z" fill="black"/>
<path d="M2649.02 106.246V102.807C2668.29 102.807 2681.07 94.7386 2681.07 80.6741C2681.07 62.1565 2667.54 54.6172 2643.24 54.6172H2568.33V154.788H2643.24C2669.43 154.788 2681.07 145.353 2681.07 130.627C2681.07 115.902 2671.72 106.29 2649.02 106.29V106.246ZM2629.04 131.994H2606.47V115.24H2629.04C2636.36 115.24 2640.11 118.547 2640.11 123.529C2640.11 130.01 2635.7 131.95 2629.04 131.95V131.994ZM2629.04 93.945H2606.47V77.3233H2629.04C2634.91 77.3233 2640.11 78.7782 2640.11 85.7443C2640.11 92.7105 2634.11 93.9009 2629.04 93.9009V93.945Z" fill="black"/>
<path d="M2686.37 54.5693H2755.24C2797.08 54.5693 2815.91 75.1591 2815.91 104.655C2815.91 135.606 2793.24 154.741 2755.24 154.741H2686.37V54.5693ZM2775.25 104.655C2775.25 86.9751 2762.91 80.3176 2750.96 80.3176H2726.22V128.948H2750.96C2762.78 128.948 2775.25 122.291 2775.25 104.611V104.655Z" fill="black"/>
<path d="M3046.36 117.661L3116.38 82.6102V79.4799H3046.36V54.5693H3160.12V91.9572L3090.23 126.744V129.874H3160.43V154.785H3046.36V117.705V117.661Z" fill="black"/>
<path d="M3248.48 106.246V102.807C3267.75 102.807 3280.53 94.7386 3280.53 80.6741C3280.53 62.1565 3267 54.6172 3242.7 54.6172H3167.79V154.788H3242.7C3268.89 154.788 3280.53 145.353 3280.53 130.627C3280.53 115.902 3271.19 106.29 3248.48 106.29V106.246ZM3228.5 131.994H3205.93V115.24H3228.5C3235.82 115.24 3239.57 118.547 3239.57 123.529C3239.57 130.01 3235.16 131.95 3228.5 131.95V131.994ZM3228.5 93.945H3205.93V77.3233H3228.5C3234.37 77.3233 3239.57 78.7782 3239.57 85.7443C3239.57 92.7105 3233.58 93.9009 3228.5 93.9009V93.945Z" fill="black"/>
<path d="M3285.82 54.5693H3354.69C3396.54 54.5693 3415.36 75.1591 3415.36 104.655C3415.36 135.606 3392.7 154.741 3354.69 154.741H3285.82V54.5693ZM3374.71 104.655C3374.71 86.9751 3362.37 80.3176 3350.42 80.3176H3325.68V128.948H3350.42C3362.23 128.948 3374.71 122.291 3374.71 104.611V104.655Z" fill="black"/>
<path d="M1852.15 100.249C1852.15 100.249 1805.81 95.355 1802.24 162.106C1802.24 162.106 1802.68 106.995 1755.37 100.469C1755.37 100.469 1799.07 97.8681 1800.79 39.9346C1800.83 39.8905 1800.48 94.6496 1852.11 100.293L1852.15 100.249Z" fill="#F0FF27" stroke="black" stroke-width="0.886716" stroke-linejoin="round"/>
<path d="M131.579 159.767C161.433 159.767 185.635 135.211 185.635 104.92C185.635 74.6287 161.433 50.0728 131.579 50.0728C101.724 50.0728 77.5225 74.6287 77.5225 104.92C77.5225 135.211 101.724 159.767 131.579 159.767Z" fill="#D1CBFB"/>
<path d="M173.9 69.8144C163.848 75.8987 148.812 79.7786 131.969 79.7786C115.127 79.7786 99.9591 75.8547 89.9062 69.6821" stroke="black" stroke-width="0.886716" stroke-miterlimit="10"/>
<path d="M132.017 159.762C147.212 159.762 159.53 135.246 159.53 105.003C159.53 74.7606 147.212 50.2441 132.017 50.2441C116.822 50.2441 104.504 74.7606 104.504 105.003C104.504 135.246 116.822 159.762 132.017 159.762Z" stroke="black" stroke-width="0.886716" stroke-miterlimit="10"/>
<path d="M89.5566 139.609C99.6095 133.349 114.865 129.336 131.973 129.336C149.08 129.336 164.203 133.304 174.256 139.521" stroke="black" stroke-width="0.886716" stroke-miterlimit="10"/>
<path d="M132.016 159.761C162.26 159.761 186.778 135.244 186.778 105.002C186.778 74.7592 162.26 50.2427 132.016 50.2427C101.772 50.2427 77.2549 74.7592 77.2549 105.002C77.2549 135.244 101.772 159.761 132.016 159.761Z" stroke="black" stroke-width="0.886716" stroke-miterlimit="10"/>
<path d="M132.012 50.1934V159.491" stroke="black" stroke-width="0.886716" stroke-miterlimit="10"/>
<path d="M186.731 104.56H77.3848" stroke="black" stroke-width="0.886716" stroke-miterlimit="10"/>
<path d="M693.649 92.2289H731.832L682.714 163.169V114.053H644.531L693.649 43.1133V92.2289Z" fill="#A8E752" stroke="black" stroke-width="0.886716" stroke-miterlimit="10"/>
<path d="M1243.16 158.896C1274.56 158.896 1300 133.633 1300 102.461C1300 71.2901 1274.56 46.0269 1243.16 46.0269C1211.77 46.0269 1186.33 71.2901 1186.33 102.461C1186.33 133.633 1211.77 158.896 1243.16 158.896Z" fill="#F0FF27" stroke="black" stroke-width="0.886716" stroke-linejoin="round"/>
<path d="M1232.89 99.6868C1235.05 99.6868 1236.81 91.7066 1236.81 81.8746C1236.81 72.0427 1235.05 64.0625 1232.89 64.0625C1230.73 64.0625 1228.96 72.0427 1228.96 81.8746C1228.96 91.7066 1230.73 99.6868 1232.89 99.6868Z" fill="black"/>
<path d="M1255.07 99.6868C1257.23 99.6868 1258.99 91.7066 1258.99 81.8746C1258.99 72.0427 1257.23 64.0625 1255.07 64.0625C1252.91 64.0625 1251.14 72.0427 1251.14 81.8746C1251.14 91.7066 1252.91 99.6868 1255.07 99.6868Z" fill="black"/>
<path d="M1273.54 107.483C1273.54 123.708 1260.31 136.847 1243.96 136.847C1227.6 136.847 1214.37 123.708 1214.37 107.483" stroke="black" stroke-width="0.886716" stroke-linejoin="round"/>
<path d="M2348.75 163.56C2380.02 163.56 2405.36 138.215 2405.36 106.949C2405.36 75.6839 2380.02 50.3384 2348.75 50.3384C2317.48 50.3384 2292.14 75.6839 2292.14 106.949C2292.14 138.215 2317.48 163.56 2348.75 163.56Z" fill="#F7C645" stroke="black" stroke-width="0.886716" stroke-miterlimit="10"/>
<path d="M2356.02 136.186L2331.73 136.362L2331.33 81.5148L2354.04 81.3385C2364.71 81.2503 2370.44 86.541 2370.53 94.874C2370.57 102.105 2365.46 106.337 2360.96 107.484C2366.69 108.718 2372.78 113.127 2372.82 121.019C2372.91 130.719 2365.55 136.098 2355.98 136.186H2356.02ZM2336.98 105.279L2353.6 105.147C2360.65 105.103 2364.8 101.135 2364.75 95.4471C2364.71 89.7596 2360.48 86.4529 2353.47 86.497L2336.84 86.6292L2336.98 105.279ZM2355.05 110.261L2337.02 110.393L2337.15 131.16L2355.19 131.027C2362.42 130.983 2367 126.398 2366.96 120.446C2366.91 114.494 2362.42 110.217 2355.05 110.261Z" fill="black" stroke="black" stroke-width="0.886716" stroke-miterlimit="10"/>
<path d="M2342.35 83.5349L2342.26 70.1768" stroke="black" stroke-width="0.886716" stroke-miterlimit="10"/>
<path d="M2352.85 83.45L2352.76 70.0918" stroke="black" stroke-width="0.886716" stroke-miterlimit="10"/>
<path d="M2342.79 147.689L2342.71 134.331" stroke="black" stroke-width="0.886716" stroke-miterlimit="10"/>
<path d="M2353.29 147.611L2353.2 134.297" stroke="black" stroke-width="0.886716" stroke-miterlimit="10"/>
<path d="M2895.36 154.798C2913.48 154.798 2928.16 131.071 2928.16 101.802C2928.16 72.5336 2913.48 48.8066 2895.36 48.8066C2877.24 48.8066 2862.56 72.5336 2862.56 101.802C2862.56 131.071 2877.24 154.798 2895.36 154.798Z" fill="white" stroke="black" stroke-width="0.886716" stroke-linejoin="round"/>
<path d="M2970.67 154.798C2988.79 154.798 3003.48 131.071 3003.48 101.802C3003.48 72.5336 2988.79 48.8066 2970.67 48.8066C2952.56 48.8066 2937.87 72.5336 2937.87 101.802C2937.87 131.071 2952.56 154.798 2970.67 154.798Z" fill="white" stroke="black" stroke-width="0.886716" stroke-linejoin="round"/>
<path d="M2885.53 134.161C2898.65 134.161 2909.29 123.521 2909.29 110.397C2909.29 97.2719 2898.65 86.6323 2885.53 86.6323C2872.4 86.6323 2861.76 97.2719 2861.76 110.397C2861.76 123.521 2872.4 134.161 2885.53 134.161Z" fill="black"/>
<path d="M2962.25 134.161C2975.37 134.161 2986.01 123.521 2986.01 110.397C2986.01 97.2719 2975.37 86.6323 2962.25 86.6323C2949.12 86.6323 2938.48 97.2719 2938.48 110.397C2938.48 123.521 2949.12 134.161 2962.25 134.161Z" fill="black"/>
<path d="M2877.2 106.959C2880.99 106.959 2884.07 103.88 2884.07 100.082C2884.07 96.2833 2880.99 93.2041 2877.2 93.2041C2873.4 93.2041 2870.32 96.2833 2870.32 100.082C2870.32 103.88 2873.4 106.959 2877.2 106.959Z" fill="white"/>
<path d="M2954.84 106.959C2958.64 106.959 2961.72 103.88 2961.72 100.082C2961.72 96.2833 2958.64 93.2041 2954.84 93.2041C2951.04 93.2041 2947.96 96.2833 2947.96 100.082C2947.96 103.88 2951.04 106.959 2954.84 106.959Z" fill="white"/>
<path d="M3630.54 117.661L3700.55 82.6097V79.4794H3630.54V54.5688H3744.29V91.9567L3674.41 126.743V129.874H3744.6V154.784H3630.54V117.705V117.661Z" fill="black"/>
<path d="M3832.65 106.246V102.807C3851.92 102.807 3864.71 94.7386 3864.71 80.6741C3864.71 62.1565 3851.17 54.6172 3826.88 54.6172H3751.96V154.788H3826.88C3853.07 154.788 3864.71 145.353 3864.71 130.627C3864.71 115.902 3855.36 106.29 3832.65 106.29V106.246ZM3812.68 131.994H3790.1V115.24H3812.68C3820 115.24 3823.75 118.547 3823.75 123.529C3823.75 130.01 3819.34 131.95 3812.68 131.95V131.994ZM3812.68 93.945H3790.1V77.3233H3812.68C3818.54 77.3233 3823.75 78.7782 3823.75 85.7443C3823.75 92.7105 3817.75 93.9009 3812.68 93.9009V93.945Z" fill="black"/>
<path d="M3870.04 54.5693H3938.91C3980.76 54.5693 3999.58 75.1591 3999.58 104.655C3999.58 135.606 3976.92 154.741 3938.91 154.741H3870.04V54.5693ZM3958.93 104.655C3958.93 86.9751 3946.59 80.3176 3934.64 80.3176H3909.9V128.948H3934.64C3946.45 128.948 3958.93 122.291 3958.93 104.611V104.655Z" fill="black"/>
<path d="M4159.32 117.661L4229.33 82.6102V79.4799H4159.32V54.5693H4273.07V91.9572L4203.19 126.744V129.874H4273.38V154.785H4159.32V117.705V117.661Z" fill="black"/>
<path d="M4361.43 106.246V102.807C4380.7 102.807 4393.48 94.7386 4393.48 80.6741C4393.48 62.1565 4379.95 54.6172 4355.65 54.6172H4280.74V154.788H4355.65C4381.84 154.788 4393.48 145.353 4393.48 130.627C4393.48 115.902 4384.14 106.29 4361.43 106.29V106.246ZM4341.46 131.994H4318.88V115.24H4341.46C4348.78 115.24 4352.52 118.547 4352.52 123.529C4352.52 130.01 4348.11 131.95 4341.46 131.95V131.994ZM4341.46 93.945H4318.88V77.3233H4341.46C4347.32 77.3233 4352.52 78.7782 4352.52 85.7443C4352.52 92.7105 4346.53 93.9009 4341.46 93.9009V93.945Z" fill="black"/>
<path d="M4398.82 54.5693H4467.69C4509.54 54.5693 4528.36 75.1591 4528.36 104.655C4528.36 135.606 4505.7 154.741 4467.69 154.741H4398.82V54.5693ZM4487.71 104.655C4487.71 86.9751 4475.37 80.3176 4463.42 80.3176H4438.68V128.948H4463.42C4475.23 128.948 4487.71 122.291 4487.71 104.611V104.655Z" fill="black"/>
<path d="M4740.58 117.661L4810.59 82.6097V79.4794H4740.58V54.5688H4854.33V91.9567L4784.45 126.743V129.874H4854.64V154.784H4740.58V117.705V117.661Z" fill="black"/>
<path d="M4942.73 106.246V102.807C4962 102.807 4974.79 94.7386 4974.79 80.6741C4974.79 62.1565 4961.25 54.6172 4936.96 54.6172H4862.05V154.788H4936.96C4963.15 154.788 4974.79 145.353 4974.79 130.627C4974.79 115.902 4965.44 106.29 4942.73 106.29V106.246ZM4922.76 131.994H4900.19V115.24H4922.76C4930.08 115.24 4933.83 118.547 4933.83 123.529C4933.83 130.01 4929.42 131.95 4922.76 131.95V131.994ZM4922.76 93.945H4900.19V77.3233H4922.76C4928.62 77.3233 4933.83 78.7782 4933.83 85.7443C4933.83 92.7105 4927.83 93.9009 4922.76 93.9009V93.945Z" fill="black"/>
<path d="M4980.08 54.5693H5048.95C5090.8 54.5693 5109.62 75.1591 5109.62 104.655C5109.62 135.606 5086.96 154.741 5048.95 154.741H4980.08V54.5693ZM5068.97 104.655C5068.97 86.9751 5056.62 80.3176 5044.68 80.3176H5019.94V128.948H5044.68C5056.49 128.948 5068.97 122.291 5068.97 104.611V104.655Z" fill="black"/>
<path d="M5242.52 100.249C5242.52 100.249 5196.18 95.355 5192.6 162.106C5192.6 162.106 5193.05 106.995 5145.74 100.469C5145.74 100.469 5189.43 97.8681 5191.15 39.9346C5191.19 39.8905 5190.84 94.6496 5242.47 100.293L5242.52 100.249Z" fill="#F0FF27" stroke="black" stroke-width="0.886716" stroke-linejoin="round"/>
<path d="M3521.93 159.767C3551.79 159.767 3575.99 135.211 3575.99 104.92C3575.99 74.6287 3551.79 50.0728 3521.93 50.0728C3492.08 50.0728 3467.88 74.6287 3467.88 104.92C3467.88 135.211 3492.08 159.767 3521.93 159.767Z" fill="#D1CBFB"/>
<path d="M3564.21 69.8144C3554.16 75.8987 3539.13 79.7786 3522.28 79.7786C3505.44 79.7786 3490.27 75.8547 3480.22 69.6821" stroke="black" stroke-width="0.886716" stroke-miterlimit="10"/>
<path d="M3522.33 159.762C3537.52 159.762 3549.84 135.246 3549.84 105.003C3549.84 74.7606 3537.52 50.2441 3522.33 50.2441C3507.13 50.2441 3494.81 74.7606 3494.81 105.003C3494.81 135.246 3507.13 159.762 3522.33 159.762Z" stroke="black" stroke-width="0.886716" stroke-miterlimit="10"/>
<path d="M3479.91 139.609C3489.97 133.349 3505.22 129.336 3522.33 129.336C3539.44 129.336 3554.56 133.304 3564.61 139.521" stroke="black" stroke-width="0.886716" stroke-miterlimit="10"/>
<path d="M3522.33 159.762C3552.57 159.762 3577.09 135.246 3577.09 105.003C3577.09 74.7606 3552.57 50.2441 3522.33 50.2441C3492.09 50.2441 3467.57 74.7606 3467.57 105.003C3467.57 135.246 3492.09 159.762 3522.33 159.762Z" stroke="black" stroke-width="0.886716" stroke-miterlimit="10"/>
<path d="M3522.33 50.1934V159.491" stroke="black" stroke-width="0.886716" stroke-miterlimit="10"/>
<path d="M3577.05 104.56H3467.75" stroke="black" stroke-width="0.886716" stroke-miterlimit="10"/>
<path d="M4084.01 92.2289H4122.2L4073.08 163.169V114.053H4034.9L4084.01 43.1133V92.2289Z" fill="#A8E752" stroke="black" stroke-width="0.886716" stroke-miterlimit="10"/>
<path d="M4633.52 158.896C4664.91 158.896 4690.36 133.633 4690.36 102.461C4690.36 71.2901 4664.91 46.0269 4633.52 46.0269C4602.13 46.0269 4576.69 71.2901 4576.69 102.461C4576.69 133.633 4602.13 158.896 4633.52 158.896Z" fill="#F0FF27" stroke="black" stroke-width="0.886716" stroke-linejoin="round"/>
<path d="M4623.25 99.6868C4625.41 99.6868 4627.17 91.7066 4627.17 81.8746C4627.17 72.0427 4625.41 64.0625 4623.25 64.0625C4621.09 64.0625 4619.32 72.0427 4619.32 81.8746C4619.32 91.7066 4621.09 99.6868 4623.25 99.6868Z" fill="black"/>
<path d="M4645.38 99.6868C4647.54 99.6868 4649.31 91.7066 4649.31 81.8746C4649.31 72.0427 4647.54 64.0625 4645.38 64.0625C4643.22 64.0625 4641.46 72.0427 4641.46 81.8746C4641.46 91.7066 4643.22 99.6868 4645.38 99.6868Z" fill="black"/>
<path d="M4663.9 107.483C4663.9 123.708 4650.67 136.847 4634.31 136.847C4617.96 136.847 4604.73 123.708 4604.73 107.483" stroke="black" stroke-width="0.886716" stroke-linejoin="round"/>
<path d="M5268.08 117.661L5338.1 82.6102V79.4799H5268.08V54.5693H5381.84V91.9572L5311.95 126.744V129.874H5382.15V154.785H5268.08V117.705V117.661Z" fill="black"/>
<path d="M5470.2 106.246V102.807C5489.47 102.807 5502.25 94.7386 5502.25 80.6741C5502.25 62.1565 5488.72 54.6172 5464.42 54.6172H5389.51V154.788H5464.42C5490.61 154.788 5502.25 145.353 5502.25 130.627C5502.25 115.902 5492.9 106.29 5470.2 106.29V106.246ZM5450.22 131.994H5427.65V115.24H5450.22C5457.54 115.24 5461.29 118.547 5461.29 123.529C5461.29 130.01 5456.88 131.95 5450.22 131.95V131.994ZM5450.22 93.945H5427.65V77.3233H5450.22C5456.09 77.3233 5461.29 78.7782 5461.29 85.7443C5461.29 92.7105 5455.29 93.9009 5450.22 93.9009V93.945Z" fill="black"/>
<path d="M5507.59 54.5693H5576.46C5618.3 54.5693 5637.13 75.1591 5637.13 104.655C5637.13 135.606 5614.47 154.741 5576.46 154.741H5507.59V54.5693ZM5596.48 104.655C5596.48 86.9751 5584.13 80.3176 5572.18 80.3176H5547.45V128.948H5572.18C5584 128.948 5596.48 122.291 5596.48 104.611V104.655Z" fill="black"/>
<path d="M5831.27 117.661L5901.29 82.6097V79.4794H5831.27V54.5688H5945.02V91.9567L5875.14 126.743V129.874H5945.33V154.784H5831.27V117.705V117.661Z" fill="black"/>
<path d="M6033.43 106.246V102.807C6052.7 102.807 6065.48 94.7386 6065.48 80.6741C6065.48 62.1565 6051.95 54.6172 6027.65 54.6172H5952.74V154.788H6027.65C6053.84 154.788 6065.48 145.353 6065.48 130.627C6065.48 115.902 6056.13 106.29 6033.43 106.29V106.246ZM6013.45 131.994H5990.88V115.24H6013.45C6020.77 115.24 6024.52 118.547 6024.52 123.529C6024.52 130.01 6020.11 131.95 6013.45 131.95V131.994ZM6013.45 93.945H5990.88V77.3233H6013.45C6019.32 77.3233 6024.52 78.7782 6024.52 85.7443C6024.52 92.7105 6018.52 93.9009 6013.45 93.9009V93.945Z" fill="black"/>
<path d="M6070.78 54.5693H6139.65C6181.49 54.5693 6200.32 75.1591 6200.32 104.655C6200.32 135.606 6177.65 154.741 6139.65 154.741H6070.78V54.5693ZM6159.66 104.655C6159.66 86.9751 6147.32 80.3176 6135.37 80.3176H6110.63V128.948H6135.37C6147.19 128.948 6159.66 122.291 6159.66 104.611V104.655Z" fill="black"/>
<path d="M6430.78 117.661L6500.79 82.6097V79.4794H6430.78V54.5688H6544.53V91.9567L6474.65 126.743V129.874H6544.84V154.784H6430.78V117.705V117.661Z" fill="black"/>
<path d="M6632.89 106.246V102.807C6652.16 102.807 6664.95 94.7386 6664.95 80.6741C6664.95 62.1565 6651.41 54.6172 6627.12 54.6172H6552.21V154.788H6627.12C6653.31 154.788 6664.95 145.353 6664.95 130.627C6664.95 115.902 6655.6 106.29 6632.89 106.29V106.246ZM6612.92 131.994H6590.34V115.24H6612.92C6620.24 115.24 6623.99 118.547 6623.99 123.529C6623.99 130.01 6619.58 131.95 6612.92 131.95V131.994ZM6612.92 93.945H6590.34V77.3233H6612.92C6618.78 77.3233 6623.99 78.7782 6623.99 85.7443C6623.99 92.7105 6617.99 93.9009 6612.92 93.9009V93.945Z" fill="black"/>
<path d="M6670.28 54.5693H6739.15C6781 54.5693 6799.82 75.1591 6799.82 104.655C6799.82 135.606 6777.16 154.741 6739.15 154.741H6670.28V54.5693ZM6759.17 104.655C6759.17 86.9751 6746.83 80.3176 6734.88 80.3176H6710.14V128.948H6734.88C6746.69 128.948 6759.17 122.291 6759.17 104.611V104.655Z" fill="black"/>
<path d="M5733.17 163.56C5764.43 163.56 5789.78 138.215 5789.78 106.949C5789.78 75.6839 5764.43 50.3384 5733.17 50.3384C5701.9 50.3384 5676.55 75.6839 5676.55 106.949C5676.55 138.215 5701.9 163.56 5733.17 163.56Z" fill="#F7C645" stroke="black" stroke-width="0.886716" stroke-miterlimit="10"/>
<path d="M5740.48 136.185L5716.19 136.362L5715.79 81.5144L5738.5 81.338C5749.17 81.2498 5754.9 86.5406 5754.99 94.8735C5755.03 102.104 5749.92 106.337 5745.42 107.483C5751.15 108.718 5757.24 113.126 5757.28 121.019C5757.37 130.718 5750.01 136.097 5740.44 136.185H5740.48ZM5721.44 105.279L5738.06 105.146C5745.11 105.102 5749.26 101.134 5749.21 95.4466C5749.17 89.7591 5744.94 86.4524 5737.93 86.4965L5721.3 86.6287L5721.44 105.279ZM5739.51 110.261L5721.48 110.393L5721.61 131.159L5739.65 131.027C5746.88 130.983 5751.46 126.397 5751.42 120.445C5751.38 114.493 5746.88 110.217 5739.51 110.261Z" fill="black" stroke="black" stroke-width="0.886716" stroke-miterlimit="10"/>
<path d="M5726.77 83.5345L5726.68 70.1763" stroke="black" stroke-width="0.886716" stroke-miterlimit="10"/>
<path d="M5737.27 83.4495L5737.18 70.0913" stroke="black" stroke-width="0.886716" stroke-miterlimit="10"/>
<path d="M5727.21 147.688L5727.12 134.33" stroke="black" stroke-width="0.886716" stroke-miterlimit="10"/>
<path d="M5737.71 147.611L5737.62 134.297" stroke="black" stroke-width="0.886716" stroke-miterlimit="10"/>
<path d="M6279.77 154.798C6297.88 154.798 6312.57 131.071 6312.57 101.802C6312.57 72.5336 6297.88 48.8066 6279.77 48.8066C6261.65 48.8066 6246.96 72.5336 6246.96 101.802C6246.96 131.071 6261.65 154.798 6279.77 154.798Z" fill="white" stroke="black" stroke-width="0.886716" stroke-linejoin="round"/>
<path d="M6355.07 154.798C6373.19 154.798 6387.88 131.071 6387.88 101.802C6387.88 72.5336 6373.19 48.8066 6355.07 48.8066C6336.96 48.8066 6322.27 72.5336 6322.27 101.802C6322.27 131.071 6336.96 154.798 6355.07 154.798Z" fill="white" stroke="black" stroke-width="0.886716" stroke-linejoin="round"/>
<path d="M6269.93 134.161C6283.06 134.161 6293.7 123.521 6293.7 110.397C6293.7 97.2719 6283.06 86.6323 6269.93 86.6323C6256.81 86.6323 6246.17 97.2719 6246.17 110.397C6246.17 123.521 6256.81 134.161 6269.93 134.161Z" fill="black"/>
<path d="M6346.7 134.161C6359.82 134.161 6370.46 123.521 6370.46 110.397C6370.46 97.2719 6359.82 86.6323 6346.7 86.6323C6333.57 86.6323 6322.93 97.2719 6322.93 110.397C6322.93 123.521 6333.57 134.161 6346.7 134.161Z" fill="black"/>
<path d="M6261.6 106.959C6265.4 106.959 6268.48 103.88 6268.48 100.082C6268.48 96.2833 6265.4 93.2041 6261.6 93.2041C6257.8 93.2041 6254.72 96.2833 6254.72 100.082C6254.72 103.88 6257.8 106.959 6261.6 106.959Z" fill="white"/>
<path d="M6339.25 106.959C6343.04 106.959 6346.12 103.88 6346.12 100.082C6346.12 96.2833 6343.04 93.2041 6339.25 93.2041C6335.45 93.2041 6332.37 96.2833 6332.37 100.082C6332.37 103.88 6335.45 106.959 6339.25 106.959Z" fill="white"/>
<path d="M7014.95 117.661L7084.96 82.6097V79.4794H7014.95V54.5688H7128.7V91.9567L7058.82 126.743V129.874H7129.01V154.784H7014.95V117.705V117.661Z" fill="black"/>
<path d="M7217.06 106.246V102.807C7236.33 102.807 7249.12 94.7386 7249.12 80.6741C7249.12 62.1565 7235.58 54.6172 7211.29 54.6172H7136.38V154.788H7211.29C7237.48 154.788 7249.12 145.353 7249.12 130.627C7249.12 115.902 7239.77 106.29 7217.06 106.29V106.246ZM7197.09 131.994H7174.51V115.24H7197.09C7204.41 115.24 7208.16 118.547 7208.16 123.529C7208.16 130.01 7203.75 131.95 7197.09 131.95V131.994ZM7197.09 93.945H7174.51V77.3233H7197.09C7202.95 77.3233 7208.16 78.7782 7208.16 85.7443C7208.16 92.7105 7202.16 93.9009 7197.09 93.9009V93.945Z" fill="black"/>
<path d="M7254.45 54.5693H7323.32C7365.17 54.5693 7383.99 75.1591 7383.99 104.655C7383.99 135.606 7361.33 154.741 7323.32 154.741H7254.45V54.5693ZM7343.34 104.655C7343.34 86.9751 7331 80.3176 7319.05 80.3176H7294.31V128.948H7319.05C7330.86 128.948 7343.34 122.291 7343.34 104.611V104.655Z" fill="black"/>
<path d="M7543.73 117.661L7613.75 82.6097V79.4794H7543.73V54.5688H7657.49V91.9567L7587.6 126.743V129.874H7657.8V154.784H7543.73V117.705V117.661Z" fill="black"/>
<path d="M7745.89 106.246V102.807C7765.15 102.807 7777.94 94.7386 7777.94 80.6741C7777.94 62.1565 7764.4 54.6172 7740.11 54.6172H7665.2V154.788H7740.11C7766.3 154.788 7777.94 145.353 7777.94 130.627C7777.94 115.902 7768.59 106.29 7745.89 106.29V106.246ZM7725.91 131.994H7703.34V115.24H7725.91C7733.23 115.24 7736.98 118.547 7736.98 123.529C7736.98 130.01 7732.57 131.95 7725.91 131.95V131.994ZM7725.91 93.945H7703.34V77.3233H7725.91C7731.78 77.3233 7736.98 78.7782 7736.98 85.7443C7736.98 92.7105 7730.98 93.9009 7725.91 93.9009V93.945Z" fill="black"/>
<path d="M7783.24 54.5693H7852.11C7893.95 54.5693 7912.78 75.1591 7912.78 104.655C7912.78 135.606 7890.12 154.741 7852.11 154.741H7783.24V54.5693ZM7872.13 104.655C7872.13 86.9751 7859.78 80.3176 7847.83 80.3176H7823.1V128.948H7847.83C7859.65 128.948 7872.13 122.291 7872.13 104.611V104.655Z" fill="black"/>
<path d="M8124.99 117.661L8195.01 82.6097V79.4794H8124.99V54.5688H8238.75V91.9567L8168.86 126.743V129.874H8239.06V154.784H8124.99V117.705V117.661Z" fill="black"/>
<path d="M8327.15 106.246V102.807C8346.42 102.807 8359.21 94.7386 8359.21 80.6741C8359.21 62.1565 8345.67 54.6172 8321.38 54.6172H8246.46V154.788H8321.38C8347.57 154.788 8359.21 145.353 8359.21 130.627C8359.21 115.902 8349.86 106.29 8327.15 106.29V106.246ZM8307.18 131.994H8284.6V115.24H8307.18C8314.5 115.24 8318.25 118.547 8318.25 123.529C8318.25 130.01 8313.84 131.95 8307.18 131.95V131.994ZM8307.18 93.945H8284.6V77.3233H8307.18C8313.04 77.3233 8318.25 78.7782 8318.25 85.7443C8318.25 92.7105 8312.25 93.9009 8307.18 93.9009V93.945Z" fill="black"/>
<path d="M8364.5 54.5693H8433.37C8475.21 54.5693 8494.04 75.1591 8494.04 104.655C8494.04 135.606 8471.38 154.741 8433.37 154.741H8364.5V54.5693ZM8453.39 104.655C8453.39 86.9751 8441.04 80.3176 8429.09 80.3176H8404.36V128.948H8429.09C8440.91 128.948 8453.39 122.291 8453.39 104.611V104.655Z" fill="black"/>
<path d="M8626.93 100.249C8626.93 100.249 8580.59 95.355 8577.02 162.106C8577.02 162.106 8577.46 106.995 8530.15 100.469C8530.15 100.469 8573.84 97.8681 8575.56 39.9346C8575.6 39.8905 8575.25 94.6496 8626.88 100.293L8626.93 100.249Z" fill="#F0FF27" stroke="black" stroke-width="0.886716" stroke-linejoin="round"/>
<path d="M6906.35 159.767C6936.2 159.767 6960.4 135.211 6960.4 104.92C6960.4 74.6287 6936.2 50.0728 6906.35 50.0728C6876.49 50.0728 6852.29 74.6287 6852.29 104.92C6852.29 135.211 6876.49 159.767 6906.35 159.767Z" fill="#D1CBFB"/>
<path d="M6948.63 69.8144C6938.57 75.8987 6923.54 79.7786 6906.7 79.7786C6889.85 79.7786 6874.69 75.8547 6864.63 69.6821" stroke="black" stroke-width="0.886716" stroke-miterlimit="10"/>
<path d="M6906.74 159.762C6921.94 159.762 6934.26 135.246 6934.26 105.003C6934.26 74.7606 6921.94 50.2441 6906.74 50.2441C6891.55 50.2441 6879.23 74.7606 6879.23 105.003C6879.23 135.246 6891.55 159.762 6906.74 159.762Z" stroke="black" stroke-width="0.886716" stroke-miterlimit="10"/>
<path d="M6864.33 139.609C6874.38 133.349 6889.63 129.336 6906.74 129.336C6923.85 129.336 6938.97 133.304 6949.03 139.521" stroke="black" stroke-width="0.886716" stroke-miterlimit="10"/>
<path d="M6906.74 159.761C6936.99 159.761 6961.5 135.244 6961.5 105.002C6961.5 74.7592 6936.99 50.2427 6906.74 50.2427C6876.5 50.2427 6851.98 74.7592 6851.98 105.002C6851.98 135.244 6876.5 159.761 6906.74 159.761Z" stroke="black" stroke-width="0.886716" stroke-miterlimit="10"/>
<path d="M6906.74 50.1934V159.491" stroke="black" stroke-width="0.886716" stroke-miterlimit="10"/>
<path d="M6961.46 104.56H6852.16" stroke="black" stroke-width="0.886716" stroke-miterlimit="10"/>
<path d="M7468.42 92.2289H7506.61L7457.49 163.169V114.053H7419.31L7468.42 43.1133V92.2289Z" fill="#A8E752" stroke="black" stroke-width="0.886716" stroke-miterlimit="10"/>
<path d="M8017.94 158.896C8049.33 158.896 8074.77 133.633 8074.77 102.461C8074.77 71.2901 8049.33 46.0269 8017.94 46.0269C7986.54 46.0269 7961.1 71.2901 7961.1 102.461C7961.1 133.633 7986.54 158.896 8017.94 158.896Z" fill="#F0FF27" stroke="black" stroke-width="0.886716" stroke-linejoin="round"/>
<path d="M8007.66 99.6868C8009.82 99.6868 8011.59 91.7066 8011.59 81.8746C8011.59 72.0427 8009.82 64.0625 8007.66 64.0625C8005.5 64.0625 8003.74 72.0427 8003.74 81.8746C8003.74 91.7066 8005.5 99.6868 8007.66 99.6868Z" fill="black"/>
<path d="M8029.8 99.6868C8031.96 99.6868 8033.72 91.7066 8033.72 81.8746C8033.72 72.0427 8031.96 64.0625 8029.8 64.0625C8027.64 64.0625 8025.88 72.0427 8025.88 81.8746C8025.88 91.7066 8027.64 99.6868 8029.8 99.6868Z" fill="black"/>
<path d="M8048.32 107.483C8048.32 123.708 8035.09 136.847 8018.73 136.847C8002.37 136.847 7989.14 123.708 7989.14 107.483" stroke="black" stroke-width="0.886716" stroke-linejoin="round"/>
</svg>
